<svg xmlns="http://www.w3.org/2000/svg" width="24" height="24" viewBox="0 0 24 24" fill="none">
  <g fill="#E8112D">
    <path d="M12 12C9 9 6.5 3 12 1C17.5 3 15 9 12 12Z"/>
    <path d="M12 12C9 9 6.5 3 12 1C17.5 3 15 9 12 12Z" transform="rotate(90 12 12)"/>
    <path d="M12 12C9 9 6.5 3 12 1C17.5 3 15 9 12 12Z" transform="rotate(180 12 12)"/>
    <path d="M12 12C9 9 6.5 3 12 1C17.5 3 15 9 12 12Z" transform="rotate(270 12 12)"/>
  </g>
  <g fill="#B00B20">
    <path d="M12 12C9 9 6.5 3 12 1C17.5 3 15 9 12 12Z" transform="rotate(45 12 12)"/>
    <path d="M12 12C9 9 6.5 3 12 1C17.5 3 15 9 12 12Z" transform="rotate(135 12 12)"/>
    <path d="M12 12C9 9 6.5 3 12 1C17.5 3 15 9 12 12Z" transform="rotate(225 12 12)"/>
    <path d="M12 12C9 9 6.5 3 12 1C17.5 3 15 9 12 12Z" transform="rotate(315 12 12)"/>
  </g>
</svg>