<svg xmlns="http://www.w3.org/2000/svg" width="24" height="24" viewBox="0 0 24 24">
  <path d="M5 4.2 L5 4.2 Q14 4.2 14.75 4.2 Q15.4 4.575 16.05 4.95 Q16.425 5.6 16.8 6.25 L16.8 7 Q16.8 11 16.8 11.75 Q16.425 12.4 16.05 13.05 Q15.4 13.425 14.75 13.8 L14 13.8 L8 13.8 L8 13 L8.566 13.566 Q5.552 16.58 5.537 16.593 Q5.523 16.606 5.508 16.618 Q5.492 16.631 5.477 16.643 Q5.461 16.654 5.444 16.665 Q5.428 16.676 5.411 16.686 Q5.394 16.696 5.377 16.706 Q5.36 16.715 5.342 16.723 Q5.324 16.732 5.306 16.739 Q5.288 16.747 5.27 16.753 Q5.251 16.76 5.232 16.766 Q5.213 16.771 5.194 16.776 Q5.175 16.781 5.156 16.785 Q5.137 16.788 5.117 16.791 Q5.098 16.794 5.078 16.796 Q5.059 16.798 5.039 16.799 Q5.02 16.8 5 16.8 Q4.98 16.8 4.961 16.799 Q4.941 16.798 4.922 16.796 Q4.902 16.794 4.883 16.791 Q4.863 16.788 4.844 16.785 Q4.825 16.781 4.806 16.776 Q4.787 16.771 4.768 16.766 Q4.749 16.76 4.73 16.753 Q4.712 16.747 4.694 16.739 Q4.676 16.732 4.658 16.723 Q4.64 16.715 4.623 16.706 Q4.606 16.696 4.589 16.686 Q4.572 16.676 4.556 16.665 Q4.539 16.654 4.523 16.643 Q4.508 16.631 4.492 16.618 Q4.477 16.606 4.463 16.593 Q4.448 16.58 4.434 16.566 Q4.427 16.559 4.421 16.552 Q4.414 16.545 4.407 16.537 Q4.401 16.53 4.394 16.523 Q4.388 16.515 4.382 16.508 Q4.375 16.5 4.369 16.492 Q4.363 16.484 4.357 16.477 Q4.352 16.469 4.346 16.461 Q4.34 16.453 4.335 16.444 Q4.329 16.436 4.324 16.428 Q4.319 16.42 4.314 16.411 Q4.309 16.403 4.304 16.394 Q4.299 16.386 4.294 16.377 Q4.29 16.368 4.285 16.36 Q4.281 16.351 4.277 16.342 Q4.273 16.333 4.269 16.324 Q4.265 16.315 4.261 16.306 Q4.257 16.297 4.254 16.288 Q4.25 16.279 4.247 16.27 Q4.243 16.26 4.24 16.251 Q4.237 16.242 4.234 16.232 Q4.232 16.223 4.229 16.213 Q4.226 16.204 4.224 16.194 Q4.222 16.185 4.219 16.175 Q4.217 16.166 4.215 16.156 Q4.213 16.146 4.212 16.137 Q4.21 16.127 4.209 16.117 Q4.207 16.108 4.206 16.098 Q4.205 16.088 4.204 16.078 Q4.203 16.069 4.202 16.059 Q4.201 16.049 4.201 16.039 Q4.2 16.029 4.2 16.02 Q4.2 16.01 4.2 16 L4.2 16 Q4.2 7 4.2 6.25 Q4.575 5.6 4.95 4.95 Q5.6 4.575 6.25 4.2 L7 4.2 L7 5 L7 5.8 L5 5.8 L5 5 Z M5 5.8 Q4.98 5.8 4.961 5.799 Q4.941 5.798 4.922 5.796 Q4.902 5.794 4.883 5.791 Q4.863 5.788 4.844 5.785 Q4.825 5.781 4.806 5.776 Q4.787 5.771 4.768 5.766 Q4.749 5.76 4.73 5.753 Q4.712 5.747 4.694 5.739 Q4.676 5.732 4.658 5.723 Q4.64 5.715 4.623 5.706 Q4.606 5.696 4.589 5.686 Q4.572 5.676 4.556 5.665 Q4.539 5.654 4.523 5.643 Q4.508 5.631 4.492 5.618 Q4.477 5.606 4.463 5.593 Q4.448 5.58 4.434 5.566 Q4.42 5.552 4.407 5.537 Q4.394 5.523 4.382 5.508 Q4.369 5.492 4.357 5.477 Q4.346 5.461 4.335 5.444 Q4.324 5.428 4.314 5.411 Q4.304 5.394 4.294 5.377 Q4.285 5.36 4.277 5.342 Q4.268 5.324 4.261 5.306 Q4.253 5.288 4.247 5.27 Q4.24 5.251 4.234 5.232 Q4.229 5.213 4.224 5.194 Q4.219 5.175 4.215 5.156 Q4.212 5.137 4.209 5.117 Q4.206 5.098 4.204 5.078 Q4.202 5.059 4.201 5.039 Q4.2 5.02 4.2 5 Q4.2 4.98 4.201 4.961 Q4.202 4.941 4.204 4.922 Q4.206 4.902 4.209 4.883 Q4.212 4.863 4.215 4.844 Q4.219 4.825 4.224 4.806 Q4.229 4.787 4.234 4.768 Q4.24 4.749 4.247 4.73 Q4.253 4.712 4.261 4.694 Q4.268 4.676 4.277 4.658 Q4.285 4.64 4.294 4.623 Q4.304 4.606 4.314 4.589 Q4.324 4.572 4.335 4.556 Q4.346 4.539 4.357 4.523 Q4.369 4.508 4.382 4.492 Q4.394 4.477 4.407 4.463 Q4.42 4.448 4.434 4.434 Q4.448 4.42 4.463 4.407 Q4.477 4.394 4.492 4.382 Q4.508 4.369 4.523 4.357 Q4.539 4.346 4.556 4.335 Q4.572 4.324 4.589 4.314 Q4.606 4.304 4.623 4.294 Q4.64 4.285 4.658 4.277 Q4.676 4.268 4.694 4.261 Q4.712 4.253 4.73 4.247 Q4.749 4.24 4.768 4.234 Q4.787 4.229 4.806 4.224 Q4.825 4.219 4.844 4.215 Q4.863 4.212 4.883 4.209 Q4.902 4.206 4.922 4.204 Q4.941 4.202 4.961 4.201 Q4.98 4.2 5 4.2 L5 4.2 Q7.02 4.2 7.039 4.201 Q7.059 4.202 7.078 4.204 Q7.098 4.206 7.117 4.209 Q7.137 4.212 7.156 4.215 Q7.175 4.219 7.194 4.224 Q7.213 4.229 7.232 4.234 Q7.251 4.24 7.27 4.247 Q7.288 4.253 7.306 4.261 Q7.324 4.268 7.342 4.277 Q7.36 4.285 7.377 4.294 Q7.394 4.304 7.411 4.314 Q7.428 4.324 7.444 4.335 Q7.461 4.346 7.477 4.357 Q7.492 4.369 7.508 4.382 Q7.523 4.394 7.537 4.407 Q7.552 4.42 7.566 4.434 Q7.58 4.448 7.593 4.463 Q7.606 4.477 7.618 4.492 Q7.631 4.508 7.643 4.523 Q7.654 4.539 7.665 4.556 Q7.676 4.572 7.686 4.589 Q7.696 4.606 7.706 4.623 Q7.715 4.64 7.723 4.658 Q7.732 4.676 7.739 4.694 Q7.747 4.712 7.753 4.73 Q7.76 4.749 7.766 4.768 Q7.771 4.787 7.776 4.806 Q7.781 4.825 7.785 4.844 Q7.788 4.863 7.791 4.883 Q7.794 4.902 7.796 4.922 Q7.798 4.941 7.799 4.961 Q7.8 4.98 7.8 5 Q7.8 5.02 7.799 5.039 Q7.798 5.059 7.796 5.078 Q7.794 5.098 7.791 5.117 Q7.788 5.137 7.785 5.156 Q7.781 5.175 7.776 5.194 Q7.771 5.213 7.766 5.232 Q7.76 5.251 7.753 5.27 Q7.747 5.288 7.739 5.306 Q7.732 5.324 7.723 5.342 Q7.715 5.36 7.706 5.377 Q7.696 5.394 7.686 5.411 Q7.676 5.428 7.665 5.444 Q7.654 5.461 7.643 5.477 Q7.631 5.492 7.618 5.508 Q7.606 5.523 7.593 5.537 Q7.58 5.552 7.566 5.566 Q7.552 5.58 7.537 5.593 Q7.523 5.606 7.508 5.618 Q7.492 5.631 7.477 5.643 Q7.461 5.654 7.444 5.665 Q7.428 5.676 7.411 5.686 Q7.394 5.696 7.377 5.706 Q7.36 5.715 7.342 5.723 Q7.324 5.732 7.306 5.739 Q7.288 5.747 7.27 5.753 Q7.251 5.76 7.232 5.766 Q7.213 5.771 7.194 5.776 Q7.175 5.781 7.156 5.785 Q7.137 5.788 7.117 5.791 Q7.098 5.794 7.078 5.796 Q7.059 5.798 7.039 5.799 Q7.02 5.8 7 5.8 Q7 5.8 6.678 5.8 Q6.4 5.961 6.122 6.122 Q5.961 6.4 5.8 6.678 L5.8 7 L5.8 16 L5 16 L4.434 15.434 Q7.441 12.427 7.448 12.421 Q7.455 12.414 7.463 12.407 Q7.47 12.401 7.477 12.394 Q7.485 12.388 7.492 12.382 Q7.5 12.375 7.508 12.369 Q7.516 12.363 7.523 12.357 Q7.531 12.352 7.539 12.346 Q7.547 12.34 7.556 12.335 Q7.564 12.329 7.572 12.324 Q7.58 12.319 7.589 12.314 Q7.597 12.309 7.606 12.304 Q7.614 12.299 7.623 12.294 Q7.632 12.29 7.64 12.285 Q7.649 12.281 7.658 12.277 Q7.667 12.273 7.676 12.269 Q7.685 12.265 7.694 12.261 Q7.703 12.257 7.712 12.254 Q7.721 12.25 7.73 12.247 Q7.74 12.243 7.749 12.24 Q7.758 12.237 7.768 12.234 Q7.777 12.232 7.787 12.229 Q7.796 12.226 7.806 12.224 Q7.815 12.222 7.825 12.219 Q7.834 12.217 7.844 12.215 Q7.854 12.213 7.863 12.212 Q7.873 12.21 7.883 12.209 Q7.892 12.207 7.902 12.206 Q7.912 12.205 7.922 12.204 Q7.931 12.203 7.941 12.202 Q7.951 12.201 7.961 12.201 Q7.971 12.2 7.98 12.2 Q7.99 12.2 8 12.2 L8 12.2 Q14 12.2 14.322 12.2 Q14.6 12.039 14.878 11.878 Q15.039 11.6 15.2 11.322 L15.2 11 Q15.2 7 15.2 6.678 Q15.039 6.4 14.878 6.122 Q14.6 5.961 14.322 5.8 L14 5.8 Z M18.2 11 Q18.2 11 18.2 10.678 Q18.039 10.4 17.878 10.122 Q17.6 9.961 17.322 9.8 L17 9.8 Q11.98 9.8 11.961 9.799 Q11.941 9.798 11.922 9.796 Q11.902 9.794 11.883 9.791 Q11.863 9.788 11.844 9.785 Q11.825 9.781 11.806 9.776 Q11.787 9.771 11.768 9.766 Q11.749 9.76 11.73 9.753 Q11.712 9.747 11.694 9.739 Q11.676 9.732 11.658 9.723 Q11.64 9.715 11.623 9.706 Q11.606 9.696 11.589 9.686 Q11.572 9.676 11.556 9.665 Q11.539 9.654 11.523 9.643 Q11.508 9.631 11.492 9.618 Q11.477 9.606 11.463 9.593 Q11.448 9.58 11.434 9.566 Q11.42 9.552 11.407 9.537 Q11.394 9.523 11.382 9.508 Q11.369 9.492 11.357 9.477 Q11.346 9.461 11.335 9.444 Q11.324 9.428 11.314 9.411 Q11.304 9.394 11.294 9.377 Q11.285 9.36 11.277 9.342 Q11.268 9.324 11.261 9.306 Q11.253 9.288 11.247 9.27 Q11.24 9.251 11.234 9.232 Q11.229 9.213 11.224 9.194 Q11.219 9.175 11.215 9.156 Q11.212 9.137 11.209 9.117 Q11.206 9.098 11.204 9.078 Q11.202 9.059 11.201 9.039 Q11.2 9.02 11.2 9 Q11.2 8.98 11.201 8.961 Q11.202 8.941 11.204 8.922 Q11.206 8.902 11.209 8.883 Q11.212 8.863 11.215 8.844 Q11.219 8.825 11.224 8.806 Q11.229 8.787 11.234 8.768 Q11.24 8.749 11.247 8.73 Q11.253 8.712 11.261 8.694 Q11.268 8.676 11.277 8.658 Q11.285 8.64 11.294 8.623 Q11.304 8.606 11.314 8.589 Q11.324 8.572 11.335 8.556 Q11.346 8.539 11.357 8.523 Q11.369 8.508 11.382 8.492 Q11.394 8.477 11.407 8.463 Q11.42 8.448 11.434 8.434 Q11.448 8.42 11.463 8.407 Q11.477 8.394 11.492 8.382 Q11.508 8.369 11.523 8.357 Q11.539 8.346 11.556 8.335 Q11.572 8.324 11.589 8.314 Q11.606 8.304 11.623 8.294 Q11.64 8.285 11.658 8.277 Q11.676 8.268 11.694 8.261 Q11.712 8.253 11.73 8.247 Q11.749 8.24 11.768 8.234 Q11.787 8.229 11.806 8.224 Q11.825 8.219 11.844 8.215 Q11.863 8.212 11.883 8.209 Q11.902 8.206 11.922 8.204 Q11.941 8.202 11.961 8.201 Q11.98 8.2 12 8.2 L12 8.2 Q17 8.2 17.75 8.2 Q18.4 8.575 19.05 8.95 Q19.425 9.6 19.8 10.25 Q19.8 11.02 19.799 11.039 Q19.798 11.059 19.796 11.078 Q19.794 11.098 19.791 11.117 Q19.788 11.137 19.785 11.156 Q19.781 11.175 19.776 11.194 Q19.771 11.213 19.766 11.232 Q19.76 11.251 19.753 11.27 Q19.747 11.288 19.739 11.306 Q19.732 11.324 19.723 11.342 Q19.715 11.36 19.706 11.377 Q19.696 11.394 19.686 11.411 Q19.676 11.428 19.665 11.444 Q19.654 11.461 19.643 11.477 Q19.631 11.492 19.618 11.508 Q19.606 11.523 19.593 11.537 Q19.58 11.552 19.566 11.566 Q19.552 11.58 19.537 11.593 Q19.523 11.606 19.508 11.618 Q19.492 11.631 19.477 11.643 Q19.461 11.654 19.444 11.665 Q19.428 11.676 19.411 11.686 Q19.394 11.696 19.377 11.706 Q19.36 11.715 19.342 11.723 Q19.324 11.732 19.306 11.739 Q19.288 11.747 19.27 11.753 Q19.251 11.76 19.232 11.766 Q19.213 11.771 19.194 11.776 Q19.175 11.781 19.156 11.785 Q19.137 11.788 19.117 11.791 Q19.098 11.794 19.078 11.796 Q19.059 11.798 19.039 11.799 Q19.02 11.8 19 11.8 Q18.98 11.8 18.961 11.799 Q18.941 11.798 18.922 11.796 Q18.902 11.794 18.883 11.791 Q18.863 11.788 18.844 11.785 Q18.825 11.781 18.806 11.776 Q18.787 11.771 18.768 11.766 Q18.749 11.76 18.73 11.753 Q18.712 11.747 18.694 11.739 Q18.676 11.732 18.658 11.723 Q18.64 11.715 18.623 11.706 Q18.606 11.696 18.589 11.686 Q18.572 11.676 18.556 11.665 Q18.539 11.654 18.523 11.643 Q18.508 11.631 18.492 11.618 Q18.477 11.606 18.463 11.593 Q18.448 11.58 18.434 11.566 Q18.42 11.552 18.407 11.537 Q18.394 11.523 18.382 11.508 Q18.369 11.492 18.357 11.477 Q18.346 11.461 18.335 11.444 Q18.324 11.428 18.314 11.411 Q18.304 11.394 18.294 11.377 Q18.285 11.36 18.277 11.342 Q18.268 11.324 18.261 11.306 Q18.253 11.288 18.247 11.27 Q18.24 11.251 18.234 11.232 Q18.229 11.213 18.224 11.194 Q18.219 11.175 18.215 11.156 Q18.212 11.137 18.209 11.117 Q18.206 11.098 18.204 11.078 Q18.202 11.059 18.201 11.039 Q18.2 11.02 18.2 11 Z" fill="currentColor"/>
</svg>
