<svg xmlns="http://www.w3.org/2000/svg" width="1024" height="1024" viewBox="0 0 1024 1024">
  <defs>
    <clipPath id="tag"><path d="M214 354c0-46 38-84 84-84h274l222 242-222 242H298c-46 0-84-38-84-84z"/></clipPath>
  </defs>
  <rect width="1024" height="1024" rx="192" fill="#FFFFFF"/>
  <path d="M214 354c0-46 38-84 84-84h274l222 242-222 242H298c-46 0-84-38-84-84z" fill="#146BFF"/>
  <g clip-path="url(#tag)">
    <rect x="214" y="270" width="118" height="118" rx="18" fill="#72A6FF"/>
    <rect x="460" y="242" width="86" height="86" rx="16" fill="#0C57D7"/>
    <rect x="590" y="370" width="130" height="130" rx="20" fill="#0C57D7"/>
    <rect x="220" y="598" width="114" height="114" rx="18" fill="#0C57D7"/>
    <rect x="440" y="676" width="98" height="98" rx="18" fill="#72A6FF"/>
  </g>
  <circle cx="332" cy="512" r="62" fill="#151B2B"/>
  <circle cx="332" cy="512" r="22" fill="#FFFFFF"/>
  <path d="M440 418h76c34 0 62 28 62 62v126" fill="none" stroke="#FFFFFF" stroke-width="52" stroke-linecap="round"/>
  <path d="M644 606V518c0-34 28-62 62-62h24" fill="none" stroke="#FFFFFF" stroke-width="52" stroke-linecap="round"/>
</svg>
